<?xml version="1.0" encoding="UTF-8" standalone="no"?>
<!-- Created with Inkscape (http://www.inkscape.org/) -->

<svg
   width="48"
   height="48"
   viewBox="0 0 12.7 12.7"
   version="1.1"
   id="svg5"
   inkscape:version="1.1 (c68e22c387, 2021-05-23)"
   sodipodi:docname="logo.svg"
   xmlns:inkscape="http://www.inkscape.org/namespaces/inkscape"
   xmlns:sodipodi="http://sodipodi.sourceforge.net/DTD/sodipodi-0.dtd"
   xmlns="http://www.w3.org/2000/svg"
   xmlns:svg="http://www.w3.org/2000/svg">
  <sodipodi:namedview
     id="namedview7"
     pagecolor="#ffffff"
     bordercolor="#666666"
     borderopacity="1.0"
     inkscape:pageshadow="2"
     inkscape:pageopacity="0.0"
     inkscape:pagecheckerboard="0"
     inkscape:document-units="mm"
     showgrid="false"
     units="px"
     inkscape:zoom="11.573962"
     inkscape:cx="27.691468"
     inkscape:cy="27.691468"
     inkscape:window-width="1920"
     inkscape:window-height="1001"
     inkscape:window-x="-9"
     inkscape:window-y="-9"
     inkscape:window-maximized="1"
     inkscape:current-layer="layer1" />
  <defs
     id="defs2" />
  <g
     inkscape:label="Layer 1"
     inkscape:groupmode="layer"
     id="layer1"
     style="display:inline">
    <g
       id="g34553">
      <rect
         style="fill:none;stroke:#000000;stroke-width:0.264583"
         id="rect33079"
         width="12.595982"
         height="12.756003"
         x="0.045720439"
         y="0"
         rx="2.7580166"
         ry="2.1945813" />
      <path
         style="fill:none;stroke:#000000;stroke-width:0.266012px;stroke-linecap:butt;stroke-linejoin:miter;stroke-opacity:1"
         d="M -7.1845804e-4,4.0196296 12.641486,6.7957446e-4"
         id="path33397" />
      <path
         style="fill:none;stroke:#000000;stroke-width:0.264583px;stroke-linecap:butt;stroke-linejoin:miter;stroke-opacity:1"
         d="M 8.6444626,-0.0465 12.641702,12.756003"
         id="path33399" />
      <path
         style="fill:none;stroke:#000000;stroke-width:0.268876px;stroke-linecap:butt;stroke-linejoin:miter;stroke-opacity:1"
         d="M 0.04653961,12.753656 12.756118,8.6694595"
         id="path33401" />
      <path
         style="fill:none;stroke:#000000;stroke-width:0.264583px;stroke-linecap:butt;stroke-linejoin:miter;stroke-opacity:1"
         d="M 0.04572044,0 4.0429592,12.802503"
         id="path33403" />
      <path
         style="fill:none;stroke:#000000;stroke-width:0.264583px;stroke-linecap:butt;stroke-linejoin:miter;stroke-opacity:1"
         d="M 0.0457204,12.756003 1.6687962,0.02286022"
         id="path34063" />
      <path
         style="fill:none;stroke:#000000;stroke-width:0.264583px;stroke-linecap:butt;stroke-linejoin:miter;stroke-opacity:1"
         d="M 12.641702,12.756003 -0.02286022,11.087207"
         id="path34285" />
      <path
         style="fill:none;stroke:#000000;stroke-width:0.258933px;stroke-linecap:butt;stroke-linejoin:miter;stroke-opacity:1"
         d="M 12.646848,-0.0012342 11.082061,12.757238"
         id="path34287" />
      <path
         style="fill:none;stroke:#000000;stroke-width:0.261343px;stroke-linecap:butt;stroke-linejoin:miter;stroke-opacity:1"
         d="M 0.04510261,-0.00280075 12.68804,1.4887151"
         id="path34289" />
    </g>
    <path
       style="fill:#0000ff;fill-opacity:0.963563;stroke:#000000;stroke-width:0.0864008;stroke-opacity:1"
       d="M 5.4048241,11.473706 C 5.5112048,10.651781 5.8407501,8.054718 6.1371471,5.7024552 6.433544,3.3501924 6.699994,1.3991536 6.7292581,1.3668134 6.7803287,1.3103747 32.115913,4.2660436 32.18655,4.3366809 32.205489,4.35562 26.187567,6.288657 18.81339,8.6323188 11.439212,10.97598 5.3620567,12.910306 5.3085996,12.930819 c -0.066592,0.02555 -0.036295,-0.43323 0.096224,-1.457113 z"
       id="path91"
       transform="scale(0.26458333)" />
    <path
       style="fill:#ff0000;fill-opacity:0.963563;stroke:#000000;stroke-width:0.0864008;stroke-opacity:1"
       d="m 44.272447,33.113121 c 0.02773,-0.178202 0.693048,-5.592295 1.478495,-12.031317 0.785448,-6.439022 1.442079,-11.7656338 1.459179,-11.8369145 0.0171,-0.071281 0.0356,5.1273035 0.04111,11.5524085 l 0.01002,11.682009 -1.472734,0.478909 c -0.810004,0.263399 -1.493828,0.478908 -1.519609,0.478908 -0.02578,0 -0.02419,-0.145802 0.0035,-0.324003 z"
       id="path204"
       transform="scale(0.26458333)" />
    <path
       style="fill:#00ff00;fill-opacity:0.963563;stroke:#000000;stroke-width:0.0864008;stroke-opacity:1"
       d="m 4.139143,45.772163 c -0.3044295,-0.201236 -0.9034317,-0.71773 -1.3311158,-1.147764 -0.8072736,-0.811708 -1.5325951,-1.877 -1.3104569,-1.92469 0.1128584,-0.02423 9.1538907,1.140443 9.6843607,1.247546 0.197622,0.0399 -0.466409,0.282326 -3.0672292,1.119796 C 6.2890014,45.65493 4.7721625,46.1364 4.7439489,46.136984 4.7157351,46.137572 4.4435725,45.973399 4.139143,45.772163 Z"
       id="path470"
       transform="scale(0.26458333)" />
    <path
       style="fill:#ffff00;fill-opacity:0.963563;stroke:#000000;stroke-width:0.0864008;stroke-opacity:1"
       d="m 45.407901,38.776642 c -0.657827,-2.105127 -1.21362,-3.892889 -1.235095,-3.972805 -0.03225,-0.120007 0.223257,-0.229051 1.467758,-0.626406 0.828743,-0.264607 1.535418,-0.481105 1.57039,-0.481105 0.03497,0 0.04799,1.623256 0.02893,3.607235 -0.03287,3.421621 -0.04452,3.640106 -0.226384,4.246048 -0.388307,1.293749 -0.272074,1.49449 -1.605604,-2.772967 z"
       id="path546"
       transform="scale(0.26458333)" />
    <path
       style="fill:#800080;fill-opacity:0.963563;stroke:#000000;stroke-width:0.0864008;stroke-opacity:1"
       d="M 3.7324298,9.5632741 C 3.4347431,8.604075 2.9443754,7.0325015 2.6427238,6.0708885 L 2.0942664,4.3225013 2.6044202,3.7657583 C 3.1964789,3.1196307 4.1292571,2.3955124 4.9522188,1.9431559 5.4549605,1.6668144 5.5294533,1.646342 5.528105,1.7848884 5.5256728,2.0348134 4.3384449,11.242506 4.3042419,11.276709 4.287432,11.293519 4.0301166,10.522473 3.7324298,9.5632741 Z"
       id="path957"
       transform="scale(0.26458333)" />
    <path
       style="fill:#00ffff;fill-opacity:0.963563;stroke:#000000;stroke-width:0.0864008;stroke-opacity:0.85020238"
       d="M 1.3190413,1.840668 C 1.1190986,1.1898192 0.96408169,0.64956305 0.97455933,0.64009877 0.99017244,0.62599572 4.1007894,0.99600443 4.2296409,1.0272916 4.2512011,1.0325267 3.9773011,1.2282033 3.6209741,1.4621284 3.2646472,1.6960533 2.6968939,2.1431777 2.3592999,2.455738 2.021706,2.7682982 1.7313359,3.0240293 1.7140331,3.0240293 c -0.017303,0 -0.1950491,-0.5325127 -0.3949918,-1.1833613 z"
       id="path1111"
       transform="scale(0.26458333)" />
    <path
       style="fill:#ff6600;fill-opacity:0.963563;stroke:#000000;stroke-width:0.0864008;stroke-opacity:1"
       d="M 43.261831,31.925109 C 43.233199,31.830068 41.32197,25.701939 39.014655,18.307046 36.70734,10.912152 34.819537,4.8176527 34.819537,4.7637145 c 0,-0.053938 0.08748,-0.098409 0.194402,-0.098825 0.287784,-0.00112 11.419968,1.3133138 11.465076,1.3537379 0.0323,0.028946 -3.07567,25.7345316 -3.142706,25.9928826 -0.01233,0.04752 -0.04585,0.0086 -0.07448,-0.0864 z"
       id="path1224"
       transform="scale(0.26458333)" />
    <path
       style="fill:#008000;fill-opacity:0.963563;stroke:#000000;stroke-width:0.0864008;stroke-opacity:1"
       d="m 15.205377,46.289248 c -0.242326,-0.772207 -0.477028,-1.51602 -0.52156,-1.652918 -0.08081,-0.248434 -0.08036,-0.248822 0.242482,-0.205687 0.177897,0.02377 5.609083,0.738422 12.069303,1.588117 9.100457,1.196959 11.649607,1.55779 11.318509,1.602132 -0.235039,0.03148 -5.431523,0.06064 -11.547742,0.0648 l -11.120398,0.0076 z"
       id="path1913"
       transform="scale(0.26458333)" />
    <path
       style="fill:#552200;fill-opacity:0.963563;stroke:#000000;stroke-width:0.0864008;stroke-opacity:1"
       d="M 9.361699,47.60474 C 8.5003472,47.514003 7.4953624,47.301364 6.7824657,47.059015 L 6.1776598,46.853411 6.9120669,46.620565 c 0.4039239,-0.128066 2.0174596,-0.643349 3.5856351,-1.145074 1.568175,-0.501726 2.884253,-0.917545 2.924618,-0.924044 0.04037,-0.0065 0.297527,0.697751 0.571471,1.565 l 0.498081,1.576815 -2.256288,-0.01173 c -1.240958,-0.0065 -2.5342064,-0.04101 -2.873885,-0.07679 z"
       id="path3891"
       transform="scale(0.26458333)" />
    <path
       style="fill:#b3b3b3;fill-opacity:0.963563;stroke:#000000;stroke-width:0.0864008"
       d="M 11.793714,42.92026 C 11.152188,42.834854 8.6147375,42.499562 6.1549355,42.175165 3.6951334,41.85077 1.6597213,41.562507 1.6317973,41.534583 1.6038734,41.50666 2.2945059,35.8816 3.1665362,29.034452 4.0535596,22.069578 4.7801852,16.652553 4.8159197,16.738227 c 0.1539147,0.369009 8.1929443,26.22761 8.1698863,26.279514 -0.01412,0.03179 -0.550566,-0.01207 -1.192092,-0.09748 z"
       id="path288"
       transform="scale(0.26458333)" />
    <path
       style="fill:#b3b3b3;fill-opacity:0.963563;stroke:#000000;stroke-width:0.0864008"
       d="m 0.76879766,27.351617 0.00881,-11.831162 1.55521504,-0.49437 c 0.8553683,-0.271903 1.5611772,-0.488333 1.5684644,-0.480956 0.012669,0.01283 -3.03575259,23.974756 -3.10690712,24.421648 -0.0189156,0.118801 -0.0304276,-5.108021 -0.0255823,-11.61516 z"
       id="path327"
       transform="scale(0.26458333)" />
    <path
       style="fill:#b3b3b3;fill-opacity:0.963563;stroke:#000000;stroke-width:0.0864008"
       d="M 0.73568421,10.951306 C 0.73670925,8.2293907 0.76280745,7.4492308 0.86791604,6.9984678 1.0172231,6.3581576 1.2508418,5.7022351 1.329351,5.7029142 1.420433,5.703702 3.7657673,13.33315 3.6954366,13.399868 c -0.064076,0.06079 -2.77790371,0.942671 -2.90088102,0.942671 -0.0330817,0 -0.0595738,-1.526055 -0.0588714,-3.391233 z"
       id="path366"
       transform="scale(0.26458333)" />
    <path
       style="fill:#b3b3b3;fill-opacity:0.963563;stroke:#000000;stroke-width:0.0864008"
       d="M 21.64341,1.9884479 C 15.346949,1.2398255 10.117538,0.60732145 10.022497,0.58288329 9.9274561,0.55844511 14.908741,0.53394007 21.092018,0.52842764 l 11.242324,-0.0100226 0.141669,0.49680476 c 0.07792,0.2732427 0.273925,0.9147689 0.435569,1.4256138 0.161645,0.510845 0.268259,0.9242971 0.23692,0.9187825 -0.03134,-0.00551 -5.208629,-0.6225359 -11.50509,-1.3711582 z"
       id="path444"
       transform="scale(0.26458333)" />
    <path
       style="fill:#b3b3b3;fill-opacity:0.963563;stroke:#000000;stroke-width:0.0864008"
       d="m 34.462946,3.4763106 c -0.08,-0.052142 -0.315668,-0.7500329 -0.947794,-2.80670412 -0.04339,-0.14116399 0.09466,-0.15120146 2.079576,-0.15120146 2.291336,0 3.384792,0.0848299 4.538461,0.3520922 0.807413,0.18704778 1.583416,0.42611398 1.536252,0.47327878 -0.06071,0.060707 -6.849006,2.1986168 -6.976987,2.1973352 -0.07267,-7.257e-4 -0.175944,-0.029888 -0.229508,-0.064801 z"
       id="path483"
       transform="scale(0.26458333)" />
    <path
       style="fill:#b3b3b3;fill-opacity:0.963563;stroke:#000000;stroke-width:0.0864008"
       d="m 41.731604,4.3580618 c -2.0909,-0.2532152 -3.898288,-0.4722788 -4.016418,-0.4868079 -0.122687,-0.01509 1.001441,-0.4121054 2.621658,-0.925909 l 2.836439,-0.8994924 0.27277,0.1583438 c 0.808993,0.4696223 1.998676,1.5516922 2.488086,2.263025 l 0.25541,0.3712256 -0.328154,-0.01 C 45.68091,4.8229518 43.822504,4.6112771 41.731604,4.3580618 Z"
       id="path522"
       transform="scale(0.26458333)" />
    <path
       style="fill:#b3b3b3;fill-opacity:0.963563;stroke:#000000;stroke-width:0.0864008"
       d="m 28.962056,45.189465 c -6.738129,-0.892262 -12.267217,-1.638366 -12.286862,-1.658011 -0.01965,-0.01964 5.874483,-1.933993 13.098062,-4.254107 7.223579,-2.320113 13.145574,-4.204217 13.159989,-4.186897 0.01442,0.01732 -0.296777,2.636475 -0.691541,5.820346 -0.394763,3.183871 -0.71963,5.818016 -0.721926,5.853657 -0.0023,0.03564 -0.07222,0.06086 -0.155377,0.05605 -0.08316,-0.0048 -5.664216,-0.738779 -12.402345,-1.63104 z"
       id="path561"
       transform="scale(0.26458333)" />
    <path
       style="fill:#b3b3b3;fill-opacity:0.963563;stroke:#000000;stroke-width:0.0864008"
       d="m 42.68388,46.073246 c 0.02591,-0.178202 0.277256,-2.204625 0.558546,-4.503163 0.28129,-2.298538 0.52428,-4.192003 0.539977,-4.2077 0.0157,-0.0157 0.48825,1.445998 1.050117,3.248211 l 1.021576,3.276752 -0.349134,0.396638 c -0.359771,0.408721 -0.837475,0.841749 -1.440535,1.305814 -0.351568,0.270537 -1.261765,0.807451 -1.368821,0.807451 -0.03236,0 -0.03764,-0.145801 -0.01173,-0.324003 z"
       id="path600"
       transform="scale(0.26458333)" />
    <path
       style="fill:#ffffff;fill-opacity:0.963563;stroke:#000000;stroke-width:0.0864008"
       d="m 14.208788,43.089706 c -0.0023,-0.01039 -2.038999,-6.530214 -4.5260348,-14.4885 L 5.1608692,14.131594 19.212595,9.6590234 C 26.941045,7.1991096 33.37431,5.1761921 33.508738,5.1636513 l 0.244416,-0.022801 4.490004,14.3745637 c 2.469503,7.906011 4.473187,14.391383 4.452631,14.411939 -0.02056,0.02056 -6.389007,2.077584 -14.152112,4.571173 -7.763105,2.493589 -14.163338,4.55096 -14.222738,4.571933 -0.0594,0.02097 -0.109869,0.02963 -0.112151,0.01925 z"
       id="path891"
       transform="scale(0.26458333)" />
  </g>
  <g
     inkscape:groupmode="layer"
     id="layer2"
     inkscape:label="Layer 2"
     style="display:inline" />
</svg>
